<?xml version="1.0" encoding="UTF-8" standalone="no"?>
<!DOCTYPE svg PUBLIC "-//W3C//DTD SVG 1.1//EN" "http://www.w3.org/Graphics/SVG/1.1/DTD/svg11.dtd">
<svg width="100%" height="100%" viewBox="0 0 1862 1862" version="1.1" xmlns="http://www.w3.org/2000/svg" xmlns:xlink="http://www.w3.org/1999/xlink" xml:space="preserve" style="fill-rule:evenodd;clip-rule:evenodd;stroke-linecap:round;stroke-linejoin:round;stroke-miterlimit:1.5;">
    <g transform="matrix(0.755737,0,0,1,3650.88,1268.32)">
        <g transform="matrix(0,1.28271,-1.69729,1.11022e-16,-761.128,-1829.12)">
            <path d="M1867.5,1672C1867.5,1282.91 1552.09,967.5 1163,967.5C1163,967.5 1163,967.5 1163,967.5C773.915,967.5 458.5,1282.91 458.5,1672C458.5,1672 458.5,1672 458.5,1672C458.5,2061.09 773.915,2376.5 1163,2376.5C1163,2376.5 1163,2376.5 1163,2376.5C1349.85,2376.5 1529.04,2302.28 1661.16,2170.16C1793.28,2038.04 1867.5,1858.85 1867.5,1672C1867.5,1672 1867.5,1672 1867.5,1672Z" style="fill:white;stroke:black;stroke-width:42.6;"/>
        </g>
        <g id="Love" transform="matrix(20.6742,3.48432e-30,0,15.7045,-17483.2,-5072.21)">
            <path d="M661.5,286.9C661.3,286.9 661.1,286.9 660.9,286.9C657.2,287.1 653.6,289.3 651.4,292.6C649.4,295.7 648.9,299.4 650.1,302.6C651.5,306.4 655,309.8 658.1,312.8C658.8,313.5 659.5,314.2 660.1,314.8C662.3,317 664.5,319.1 666.6,321.1C667.8,322.2 669,323.4 670.2,324.6L671.5,325.9L672.9,324.7C676.9,321.3 680.9,317.5 684.8,313.4C685.2,313 685.6,312.5 686.1,312.1C689,309.1 692.7,305.4 693.5,300.9C694.1,297.2 693.2,293.6 691,291C688.9,288.5 685.8,287.1 682.4,287.1C682.2,287.1 682.1,287.1 681.9,287.1C676.5,287.3 673.3,290 671.4,292.4C669.6,289.9 666.3,286.9 661.5,286.9Z" style="fill:rgb(255,0,42);stroke:black;stroke-width:2.14;stroke-linecap:butt;stroke-miterlimit:1.41421;"/>
        </g>
    </g>
</svg>
